<?xml version="1.0" standalone="no"?><!DOCTYPE svg PUBLIC "-//W3C//DTD SVG 1.1//EN" "http://www.w3.org/Graphics/SVG/1.1/DTD/svg11.dtd"><svg class="icon" width="200px" height="200.00px" viewBox="0 0 1024 1024" version="1.1" xmlns="http://www.w3.org/2000/svg"><path d="M832 96H192c-52.935 0-96 43.065-96 96v640c0 52.935 43.065 96 96 96h640c52.935 0 96-43.065 96-96V192c0-52.935-43.065-96-96-96z m-192 64v32c0 17.645-14.355 32-32 32H416c-17.645 0-32-14.355-32-32v-32h256z m224 672c0 17.645-14.355 32-32 32H192c-17.645 0-32-14.355-32-32V192c0-17.645 14.355-32 32-32h128v32c0 52.935 43.065 96 96 96h192c52.935 0 96-43.065 96-96v-32h128c17.645 0 32 14.355 32 32v640z"  /><path d="M672 484.001H471.426l62.851-36.287c15.306-8.836 20.55-28.408 11.713-43.713s-28.406-20.551-43.713-11.713l-166.277 96c-0.044 0.025-0.085 0.053-0.128 0.079-0.352 0.206-0.698 0.418-1.041 0.637-0.134 0.085-0.267 0.169-0.399 0.256-0.275 0.181-0.545 0.367-0.814 0.556-0.193 0.135-0.386 0.27-0.575 0.409-0.184 0.136-0.365 0.276-0.546 0.415-0.259 0.199-0.518 0.399-0.77 0.605l-0.277 0.233c-0.325 0.272-0.646 0.547-0.959 0.831l-0.025 0.023a31.78 31.78 0 0 0-5.803 7.031c-0.127 0.208-0.245 0.423-0.368 0.634-0.125 0.216-0.254 0.43-0.373 0.649a31.75 31.75 0 0 0-3.186 8.538l-0.008 0.035a29.96 29.96 0 0 0-0.239 1.243c-0.021 0.12-0.044 0.239-0.064 0.359-0.052 0.319-0.096 0.64-0.138 0.962-0.031 0.23-0.062 0.459-0.088 0.69a31.94 31.94 0 0 0-0.066 0.694c-0.03 0.33-0.056 0.66-0.075 0.991-0.009 0.156-0.015 0.312-0.022 0.468-0.018 0.409-0.029 0.818-0.031 1.229 0 0.049-0.004 0.097-0.004 0.146 0 0.056 0.004 0.111 0.004 0.167 0.002 0.447 0.013 0.895 0.034 1.343l0.014 0.269a30.933 30.933 0 0 0 0.132 1.636 31.515 31.515 0 0 0 0.408 2.707c0.036 0.185 0.072 0.37 0.111 0.554 0.064 0.298 0.134 0.596 0.206 0.893 0.058 0.239 0.117 0.477 0.18 0.714a36.85 36.85 0 0 0 0.468 1.584c0.059 0.18 0.12 0.36 0.182 0.539 0.117 0.342 0.239 0.681 0.368 1.017 0.051 0.133 0.104 0.265 0.156 0.397 0.151 0.38 0.308 0.756 0.474 1.129 0.043 0.098 0.088 0.195 0.132 0.292a29.47 29.47 0 0 0 0.698 1.436c0.204 0.395 0.417 0.785 0.637 1.17 0.029 0.05 0.054 0.102 0.083 0.152 0.019 0.033 0.041 0.064 0.06 0.097a31.993 31.993 0 0 0 2.214 3.309 35.719 35.719 0 0 0 1.164 1.432c0.185 0.216 0.367 0.433 0.557 0.643 0.342 0.378 0.694 0.747 1.053 1.108 0.265 0.266 0.538 0.521 0.811 0.777 0.18 0.168 0.359 0.336 0.543 0.499 0.266 0.238 0.535 0.472 0.808 0.7 0.204 0.171 0.413 0.335 0.622 0.5 0.365 0.29 0.735 0.573 1.111 0.845 0.334 0.242 0.67 0.482 1.014 0.711 0.203 0.135 0.409 0.264 0.615 0.394 0.355 0.226 0.714 0.444 1.078 0.656 0.162 0.094 0.322 0.188 0.485 0.279a31.854 31.854 0 0 0 5.432 2.397l0.056 0.019c1.281 0.425 2.596 0.774 3.944 1.037l0.06 0.011c0.582 0.112 1.169 0.206 1.762 0.286 0.165 0.023 0.331 0.043 0.497 0.063 0.444 0.053 0.89 0.096 1.34 0.13 0.221 0.017 0.441 0.038 0.662 0.05 0.421 0.024 0.845 0.034 1.27 0.041 0.195 0.004 0.388 0.019 0.583 0.019 0.051 0 0.102-0.005 0.153-0.005H672c17.673 0 32-14.327 32-32s-14.327-31.997-32-31.997zM352.001 675.999h200.574l-62.851 36.287c-15.306 8.836-20.55 28.408-11.713 43.713 8.837 15.305 28.406 20.551 43.713 11.713l166.277-96c0.044-0.025 0.085-0.053 0.128-0.079 0.352-0.206 0.698-0.418 1.041-0.637 0.134-0.085 0.267-0.169 0.399-0.256 0.275-0.181 0.545-0.367 0.814-0.556 0.193-0.135 0.386-0.27 0.575-0.409 0.184-0.136 0.365-0.276 0.546-0.415 0.259-0.199 0.518-0.399 0.77-0.605l0.277-0.233c0.325-0.272 0.646-0.547 0.959-0.831l0.025-0.023a31.78 31.78 0 0 0 5.803-7.031c0.127-0.208 0.245-0.423 0.368-0.634 0.125-0.216 0.254-0.43 0.373-0.649a31.75 31.75 0 0 0 3.186-8.538l0.008-0.035c0.089-0.411 0.167-0.826 0.239-1.243 0.021-0.12 0.044-0.239 0.064-0.359 0.052-0.319 0.096-0.64 0.138-0.962 0.031-0.23 0.062-0.459 0.088-0.69 0.025-0.231 0.046-0.462 0.066-0.694 0.03-0.33 0.056-0.66 0.075-0.991 0.009-0.156 0.015-0.312 0.022-0.468 0.018-0.409 0.029-0.818 0.031-1.229 0-0.049 0.004-0.097 0.004-0.146 0-0.056-0.004-0.111-0.004-0.167a31.72 31.72 0 0 0-0.034-1.343l-0.014-0.269a30.933 30.933 0 0 0-0.132-1.636 31.515 31.515 0 0 0-0.408-2.707c-0.036-0.185-0.072-0.37-0.111-0.554a34.91 34.91 0 0 0-0.206-0.893 33.864 33.864 0 0 0-0.18-0.714 36.85 36.85 0 0 0-0.468-1.584c-0.059-0.18-0.12-0.36-0.182-0.539a29.262 29.262 0 0 0-0.368-1.017c-0.051-0.133-0.104-0.265-0.156-0.397-0.151-0.38-0.308-0.756-0.474-1.129-0.043-0.098-0.088-0.195-0.132-0.292a29.47 29.47 0 0 0-0.571-1.188l-0.127-0.248a31.413 31.413 0 0 0-0.637-1.17c-0.029-0.05-0.054-0.102-0.083-0.152-0.019-0.033-0.041-0.064-0.06-0.097a31.993 31.993 0 0 0-2.214-3.309 35.719 35.719 0 0 0-1.164-1.432c-0.185-0.216-0.367-0.433-0.557-0.643a32.41 32.41 0 0 0-1.053-1.108c-0.265-0.266-0.538-0.521-0.811-0.777-0.18-0.168-0.359-0.336-0.543-0.499a31.378 31.378 0 0 0-0.808-0.7c-0.204-0.171-0.413-0.335-0.622-0.5a30.95 30.95 0 0 0-1.111-0.845c-0.334-0.242-0.67-0.482-1.014-0.711-0.203-0.135-0.409-0.264-0.615-0.394a31.906 31.906 0 0 0-1.078-0.656c-0.162-0.094-0.322-0.188-0.485-0.279a31.854 31.854 0 0 0-3.512-1.688l-0.054-0.021a32.21 32.21 0 0 0-1.866-0.688l-0.056-0.019a31.944 31.944 0 0 0-3.944-1.037l-0.06-0.011a31.855 31.855 0 0 0-1.762-0.286c-0.165-0.023-0.331-0.043-0.497-0.063-0.444-0.053-0.89-0.096-1.34-0.13-0.221-0.017-0.441-0.038-0.662-0.05a31.44 31.44 0 0 0-1.27-0.041c-0.195-0.004-0.388-0.019-0.583-0.019-0.051 0-0.102 0.005-0.153 0.005H352.001c-17.673 0-32 14.327-32 32s14.327 31.997 32 31.997z"  /></svg>