<?xml version="1.0" standalone="no"?><!DOCTYPE svg PUBLIC "-//W3C//DTD SVG 1.1//EN" "http://www.w3.org/Graphics/SVG/1.1/DTD/svg11.dtd"><svg class="icon" width="200px" height="200.00px" viewBox="0 0 1024 1024" version="1.1" xmlns="http://www.w3.org/2000/svg"><path d="M384 384V341.333333a42.666667 42.666667 0 1 1 85.333333 0v42.666667h42.666667a42.666667 42.666667 0 0 1 0 85.333333h-42.666667v42.666667a42.666667 42.666667 0 0 1-85.333333 0v-42.666667H341.333333a42.666667 42.666667 0 0 1 0-85.333333h42.666667z m128 512a42.666667 42.666667 0 0 1-42.666667 42.666667H170.666667a42.666667 42.666667 0 0 1-42.666667-42.666667V170.666667a42.666667 42.666667 0 0 1 42.666667-42.666667h682.666666a42.666667 42.666667 0 0 1 42.666667 42.666667v213.333333a42.666667 42.666667 0 0 1-85.333333 0V213.333333H213.333333v640h256a42.666667 42.666667 0 0 1 42.666667 42.666667z m468.992-195.029333a231.594667 231.594667 0 0 1-231.68 231.594666 231.594667 231.594667 0 1 1 0-463.232c128 0 231.68 103.68 231.68 231.637334z m-137.685333 25.002666a67.712 67.712 0 0 0-15.274667-19.797333 98.986667 98.986667 0 0 0-21.546667-14.464 264.746667 264.746667 0 0 0-24.746666-10.752 1068.8 1068.8 0 0 0-24.746667-9.002667 178.474667 178.474667 0 0 1-21.632-9.088 52.778667 52.778667 0 0 1-15.317333-11.093333 21.205333 21.205333 0 0 1-5.674667-14.72 23.125333 23.125333 0 0 1 10.282667-19.626667 40.362667 40.362667 0 0 1 12.970666-5.717333c5.205333-1.408 11.221333-2.090667 18.176-2.090667 8.96 0 17.066667 0.938667 24.490667 2.645334a161.024 161.024 0 0 1 33.962667 11.946666c3.84 1.792 6.656 2.688 8.448 2.688a6.613333 6.613333 0 0 0 4.266666-1.194666 7.296 7.296 0 0 0 2.432-3.754667 28.672 28.672 0 0 0 1.194667-6.528 134.826667 134.826667 0 0 0 0.128-18.346667 32.341333 32.341333 0 0 0-0.853333-5.76 14.122667 14.122667 0 0 0-1.450667-3.712 17.28 17.28 0 0 0-3.285333-3.328 43.861333 43.861333 0 0 0-9.898667-4.906666 133.674667 133.674667 0 0 0-17.237333-5.248c-6.485333-1.621333-10.24-2.56-17.664-3.498667-1.536-0.170667-3.029333-0.128-4.608-0.256v-17.322667a25.514667 25.514667 0 1 0-51.029334 0v17.322667c-4.650667 1.365333-4.053333 1.621333-10.666666 3.157333-12.842667 2.986667-23.978667 7.637333-33.450667 13.781334a70.229333 70.229333 0 0 0-22.528 23.125333c-5.546667 9.258667-8.362667 20.053333-8.362667 32.341333 0 10.666667 1.962667 19.84 5.802667 27.52 3.84 7.637333 8.96 14.250667 15.146667 19.84 6.229333 5.632 13.269333 10.453333 21.248 14.464 7.850667 4.053333 16.042667 7.594667 24.448 10.794667 8.362667 3.114667 16.512 6.144 24.490666 9.002667 7.850667 2.816 14.933333 5.845333 21.162667 9.088 6.229333 3.242667 11.264 6.912 15.104 11.093333a20.992 20.992 0 0 1 5.845333 14.933333 27.690667 27.690667 0 0 1-13.184 23.978667 50.602667 50.602667 0 0 1-15.658666 6.442667 85.418667 85.418667 0 0 1-20.821334 2.304c-11.776 0-22.186667-1.109333-31.146666-3.285334a160.341333 160.341333 0 0 1-38.997334-14.421333 23.125333 23.125333 0 0 0-9.6-3.285333 7.936 7.936 0 0 0-4.266666 1.109333 7.338667 7.338667 0 0 0-2.858667 3.712 22.869333 22.869333 0 0 0-1.578667 6.741333 95.104 95.104 0 0 0-0.512 10.282667c0 6.144 0.426667 10.752 1.322667 13.994667a13.909333 13.909333 0 0 0 4.48 7.424c2.133333 1.706667 5.546667 3.626667 10.325333 5.888 4.778667 2.218667 10.666667 4.352 17.792 6.357333 7.125333 2.048 15.36 3.754667 24.618667 5.205333 9.301333 1.408 9.557333 2.133333 20.394667 2.133334l1.450666-0.042667 0.341334 9.301333a26.538667 26.538667 0 0 0 26.538666 25.514667 24.661333 24.661333 0 0 0 24.618667-25.514667l-0.426667-13.397333c1.792-0.426667 3.754667-0.554667 5.546667-0.981333 14.08-3.456 23.125333-8.533333 33.621333-15.36 10.496-6.784 18.858667-15.274667 25.002667-25.429334 6.101333-10.112 9.173333-21.930667 9.173333-35.413333 0-10.24-1.92-19.2-5.802666-26.794667z" /></svg>